<?xml version="1.0" encoding="utf-8"?>
<!-- Generator: Adobe Illustrator 25.4.1, SVG Export Plug-In . SVG Version: 6.00 Build 0)  -->
<svg version="1.1" id="Layer_1" xmlns="http://www.w3.org/2000/svg" xmlns:xlink="http://www.w3.org/1999/xlink" x="0px" y="0px"
	 viewBox="0 0 73.2 58.6" style="enable-background:new 0 0 73.2 58.6;" xml:space="preserve">
<style type="text/css">
	.st0{fill:#FFD500;}
</style>
<path class="st0" d="M51.7,56.7c-2.6-0.8-6.8-1.7-11.8-2.7c-7.4-1.6-15.8-3.4-22.2-5.5c-9.4-3.1-15.1-7.6-17-13.3
	c-2.3-6.9,1.7-12.9,2.1-13.6C10.5,10.5,27.1,3.4,51,1c9.4-1,16.4-1,19.4-1c1.5,0,2.8,1.1,2.8,2.5c0,0.3-0.1,0.6-0.2,0.9l-4.2,10.7
	c-0.2,0.6-0.9,1.6-2.1,1.6c-1.1-0.1-1.5-0.5-1.8-1c-0.2-0.3-0.3-0.5-0.8-0.8c-1.8-1.1-5.2-1.7-10-1.7c-2.3,0-5.1,0.1-8.1,0.4
	c-16.4,1.8-35.6,8.2-35.6,20.3c0.3,3.9,3,6.2,5.7,8c5.4,3.6,18.3,6.9,27.7,9.3c3.8,1,7.1,1.8,9.4,2.5c1.9,0.6,3.6,1.4,4.4,2
	c1.9,1.5,1.9,3.3,1.9,3.8L51.7,56.7z"/>
<path class="st0" d="M46.5,42.5c-6.2,0-11.2-5-11.2-11.2s5-11.2,11.2-11.2s11.2,5,11.2,11.2S52.6,42.5,46.5,42.5"/>
</svg>
